<svg xmlns="http://www.w3.org/2000/svg" viewBox="-50 -17.251 400 136"><g fill="#112146"><path class="logo" d="M310.4 103.2h6v15.5h3.7v-15.5h6v-3.6h-15.7M339.3 112.5l-4.9-12.9h-5.6v19.1h3.7v-14.3l4.8 12.5h4l4.7-12.5v14.3h3.9V99.6h-5.6M316.406-17.252c-7.465 0-14.59 4.92-16.94 11.703-.447 1.295-14.76 55.384-20.397 76.7L254.44-17.25h-37.243l-24.635 88.247-23.49-88.247H-49.854v118.12c0 9.9 8 17.9 17.9 17.877h17.874V68.433h46.89V35.695h-46.865V15.392h63.748v103.353h35.75V68.433h46.888V35.695H85.397V15.392h56.185l30.12 103.353h40.68l23.203-79.362 23.202 79.362h40.68l39.632-135.997h-22.69z"/></g></svg>