<svg xmlns="http://www.w3.org/2000/svg" viewBox="0 0 16 16" width="32" height="32">
    <g id="surface1">
        <path style=" " d="M 2.601563 1 C 1.722656 1 1 1.722656 1 2.601563 L 1 11.402344 C 1 12.277344 1.722656 13 2.601563 13 L 11.402344 13 C 12.277344 13 13 12.277344 13 11.402344 L 13 2.601563 C 13 1.722656 12.277344 1 11.402344 1 Z M 10 2 L 11.402344 2 C 11.734375 2 12 2.265625 12 2.601563 L 12 4 L 10 4 Z M 7 5 C 8.109375 5 9 5.890625 9 7 C 9 8.109375 8.109375 9 7 9 C 5.890625 9 5 8.109375 5 7 C 5 5.890625 5.890625 5 7 5 Z M 2 7 L 4 7 C 4 8.652344 5.347656 10 7 10 C 8.652344 10 10 8.652344 10 7 L 12 7 L 12 11.402344 C 12 11.734375 11.734375 12 11.402344 12 L 2.601563 12 C 2.265625 12 2 11.734375 2 11.402344 Z "></path>
    </g>
</svg>

