<svg xmlns="http://www.w3.org/2000/svg" viewBox="0 0 16 16" width="32" height="32">
    <g id="surface1">
        <path style=" " d="M 10.605469 1.023438 L 9.898438 1.726563 L 12.167969 4 L 10.125 4 C 8 4 6.210938 4.933594 4.976563 6.382813 C 3.742188 7.832031 3.039063 9.785156 3 11.863281 C 3 11.921875 3 11.964844 3 12 L 4 12 C 4 11.949219 4 11.910156 4 11.886719 C 4.035156 10.015625 4.667969 8.28125 5.734375 7.03125 C 6.804688 5.78125 8.289063 5 10.125 5 L 12.167969 5 L 9.898438 7.273438 L 10.605469 7.976563 L 14.082031 4.5 Z M 1 4 L 1 12.5 C 1 13.324219 1.675781 14 2.5 14 L 12.5 14 C 13.324219 14 14 13.324219 14 12.5 L 14 9 L 13 9 L 13 12.5 C 13 12.78125 12.78125 13 12.5 13 L 2.5 13 C 2.21875 13 2 12.78125 2 12.5 L 2 4 Z "></path>
    </g>
</svg>
